#!OML:ASF I:\Actors\actors\Patient Classification 1\Patient 1\Session 1\Subject1.ASF
:FULLY-SPECIFIED
:DEGREES
1618
root 0.354575 17.6358 8.28688 7.46561 6.20056 -9.79798
lowerback 2.40134 9.84282 8.41551
upperback -8.74656 13.6067 -4.88859
thorax -7.55977 6.03361 -10.7132
lowerneck -15.6323 0.545849 3.51547
upperneck 24.9486 -3.36833 12.5646
head 10.9124 0.42525 3.51996
rclavicle -1.29608e-013 -4.29375e-014
rhumerus 67.1988 61.7031 1.69182
rradius 87.0767
rwrist 15.8466
rhand -12.3164 -29.9814
rfingers 7.12502
rthumb 13.752 1020.49
lclavicle -1.29608e-013 -4.29375e-014
lhumerus -48.9571 -63.4713 91.0421
lradius 108.864
lwrist 17.9271
lhand -25.4804 -32.5362
lfingers 7.12502
lthumb 1.04759 -2.559
rfemur -1.4666 21.7916 26.0932
rtibia 2.20185
rfoot -15.5286 -33.889
rtoes 10.0836
lfemur 1.58752 -42.7302 -8.94665
ltibia -4.00092
lfoot -12.1363 48.2963
ltoes 1.81628
1619
root 0.352258 17.6372 8.28447 7.487 6.31464 -9.76096
lowerback 2.39526 9.91384 8.37098
upperback -8.77783 13.6942 -4.98461
thorax -7.55665 6.07769 -10.7932
lowerneck -15.7078 0.445674 3.37348
upperneck 24.863 -3.519 12.7568
head 10.9112 0.364901 3.59252
rclavicle -1.31496e-013 7.95139e-015
rhumerus 68.3255 61.5676 2.08304
rradius 86.9685
rwrist 15.9943
rhand -12.4118 -29.7785
rfingers 7.12502
rthumb 13.6601 1020.69
lclavicle -1.31496e-013 7.95139e-015
lhumerus -48.8849 -63.6484 91.023
lradius 108.903
lwrist 17.8925
lhand -25.4156 -32.6539
lfingers 7.12502
lthumb 1.11015 -2.67706
rfemur -1.4702 21.7961 26.052
rtibia 2.15134
rfoot -15.5928 -33.9829
rtoes 10.1653
lfemur 1.48503 -42.8391 -8.91698
ltibia -3.97839
lfoot -11.8812 48.2926
ltoes 1.29717
1620
root 0.350684 17.6377 8.28518 7.50333 6.4219 -9.70865
lowerback 2.35589 10.0001 8.29836
upperback -8.80501 13.7971 -5.08109
thorax -7.53181 6.13349 -10.8505
lowerneck -15.7498 0.346368 3.30113
upperneck 24.7613 -3.66768 12.8951
head 10.8958 0.303756 3.63216
rclavicle 1.05157e-013 3.65764e-014
rhumerus 69.5317 61.46 2.6352
rradius 86.9056
rwrist 15.8827
rhand -12.7339 -29.7173
rfingers 7.12502
rthumb 13.3497 1020.73
lclavicle 1.05157e-013 3.65764e-014
lhumerus -48.8772 -63.8073 91.0459
lradius 109.004
lwrist 17.9063
lhand -25.2848 -32.5792
lfingers 7.12502
lthumb 1.23647 -2.60299
rfemur -1.40945 21.8225 26.0092
rtibia 2.04408
rfoot -15.7264 -34.0942
rtoes 10.2932
lfemur 1.40901 -42.8397 -8.93037
ltibia -3.95925
lfoot -11.5777 48.2269
ltoes 0.83831
1621
root 0.348561 17.6374 8.28745 7.46319 6.50909 -9.78154
lowerback 2.33287 10.0815 8.33142
upperback -8.81535 13.9056 -5.11776
thorax -7.48875 6.18858 -10.8992
lowerneck -15.6408 0.258164 3.29101
upperneck 24.5492 -3.77782 12.9873
head 10.805 0.248929 3.64216
rclavicle 4.84041e-014 -6.36111e-015
rhumerus 70.7463 61.3228 3.20031
rradius 86.9331
rwrist 15.7558
rhand -12.702 -29.7912
rfingers 7.12502
rthumb 13.3804 1020.66
lclavicle 4.84041e-014 -6.36111e-015
lhumerus -48.9234 -63.9051 91.0881
lradius 109.151
lwrist 17.9019
lhand -25.1429 -32.3138
lfingers 7.12502
lthumb 1.37359 -2.33846
rfemur -1.30199 21.779 26.1248
rtibia 1.94419
rfoot -15.7962 -34.1181
rtoes 10.248
lfemur 1.4181 -42.7586 -8.83324
ltibia -3.98634
lfoot -11.5666 48.0992
ltoes 0.871211
1622
root 0.345404 17.637 8.28994 7.37006 6.59723 -9.94074
lowerback 2.36872 10.1359 8.48607
upperback -8.81678 13.9928 -5.13598
thorax -7.45335 6.22453 -11.0032
lowerneck -15.5353 0.192192 3.28578
upperneck 24.3564 -3.85893 13.0761
head 10.7204 0.208177 3.65503
rclavicle 4.01545e-014 7.95139e-015
rhumerus 72.0308 61.156 3.66593
rradius 86.892
rwrist 15.7127
rhand -12.5036 -30.0681
rfingers 7.12502
rthumb 13.5716 1020.39
lclavicle 4.01545e-014 7.95139e-015
lhumerus -48.9699 -63.9549 91.0745
lradius 109.293
lwrist 17.9136
lhand -25.0715 -32.1665
lfingers 7.12502
lthumb 1.44253 -2.19163
rfemur -1.15096 21.7001 26.3581
rtibia 1.84745
rfoot -15.7844 -34.0962
rtoes 10.37
lfemur 1.46877 -42.6381 -8.65713
ltibia -3.99916
lfoot -11.721 47.9068
ltoes 1.01016
1623
root 0.341943 17.6376 8.29186 7.29925 6.67591 -10.0118
lowerback 2.41296 10.1732 8.58833
upperback -8.81295 14.0512 -5.19493
thorax -7.42424 6.24811 -11.1255
lowerneck -15.5843 0.182877 3.26032
upperneck 24.2765 -3.88987 13.198
head 10.7071 0.20413 3.69774
rclavicle -2.01766e-014 1.27222e-014
rhumerus 73.4117 60.9649 4.14795
rradius 86.8295
rwrist 15.6893
rhand -12.3877 -30.8378
rfingers 7.12502
rthumb 13.6833 1019.63
lclavicle -2.01766e-014 1.27222e-014
lhumerus -48.9637 -63.9591 90.9998
lradius 109.375
lwrist 17.9319
lhand -25.0534 -32.2312
lfingers 7.12502
lthumb 1.46002 -2.25646
rfemur -1.01868 21.7194 26.4909
rtibia 1.77667
rfoot -15.8721 -34.1156
rtoes 10.851
lfemur 1.49493 -42.5355 -8.57209
ltibia -3.99576
lfoot -11.5845 47.7578
ltoes 0.718801
1624
root 0.338664 17.6389 8.29397 7.27775 6.7522 -10.0047
lowerback 2.42264 10.1902 8.54178
upperback -8.81872 14.0696 -5.2287
thorax -7.43326 6.25868 -11.14
lowerneck -15.7123 0.196393 3.13733
upperneck 24.2873 -3.88436 13.3336
head 10.7416 0.216808 3.7723
rclavicle -1.309e-013 7.95139e-015
rhumerus 74.8597 60.7898 4.69785
rradius 86.7919
rwrist 15.6179
rhand -12.1725 -31.7543
rfingers 7.12502
rthumb 13.8908 1018.73
lclavicle -1.309e-013 7.95139e-015
lhumerus -49.0077 -63.8424 91.0079
lradius 109.425
lwrist 17.9404
lhand -24.9914 -32.2411
lfingers 7.12502
lthumb 1.5199 -2.26681
rfemur -0.939753 21.7997 26.5209
rtibia 1.7328
rfoot -16.0266 -34.1961
rtoes 11.0074
lfemur 1.49566 -42.5483 -8.56053
ltibia -4.00611
lfoot -11.2754 47.7249
ltoes 0.254998
